<svg width="24" height="24" viewBox="0 0 24 24" fill="none" xmlns="http://www.w3.org/2000/svg">
<path d="M9.65332 13.0078C10.4097 13.0846 11 13.7233 11 14.5V16.5L10.9922 16.6533C10.9205 17.3593 10.3593 17.9205 9.65332 17.9922L9.5 18H7.5L7.34668 17.9922C6.64069 17.9205 6.07949 17.3593 6.00781 16.6533L6 16.5V14.5C6 13.7233 6.59028 13.0846 7.34668 13.0078L7.5 13H9.5L9.65332 13.0078ZM17.1885 13.6094C17.3702 13.4642 17.6347 13.4615 17.8203 13.6162C18.0058 13.771 18.0506 14.0315 17.9404 14.2363L17.8838 14.3203L15.3838 17.3203C15.2939 17.4281 15.1627 17.4927 15.0225 17.499C14.8822 17.5053 14.7458 17.4528 14.6465 17.3535L13.1465 15.8535L13.082 15.7754C12.9539 15.5813 12.9756 15.3173 13.1465 15.1465C13.3173 14.9756 13.5813 14.9539 13.7754 15.082L13.8535 15.1465L14.9658 16.2588L17.1162 13.6797L17.1885 13.6094ZM7.5 14C7.22386 14 7 14.2239 7 14.5V16.5C7 16.7761 7.22386 17 7.5 17H9.5C9.77614 17 10 16.7761 10 16.5V14.5C10 14.2239 9.77614 14 9.5 14H7.5ZM16.6533 6.00781C17.4097 6.08461 18 6.72334 18 7.5V9.5L17.9922 9.65332C17.9205 10.3593 17.3593 10.9205 16.6533 10.9922L16.5 11H7.5L7.34668 10.9922C6.64069 10.9205 6.07949 10.3593 6.00781 9.65332L6 9.5V7.5C6 6.72334 6.59028 6.08461 7.34668 6.00781L7.5 6H16.5L16.6533 6.00781ZM7.5 7C7.25829 7 7.05629 7.17145 7.00977 7.39941L7 7.5V9.5C7 9.77614 7.22386 10 7.5 10H16.5C16.7761 10 17 9.77614 17 9.5V7.5C17 7.22386 16.7761 7 16.5 7H7.5Z" fill="#1B1F24" fill-opacity="0.9"/>
</svg>
