<svg width="24" height="24" viewBox="0 0 24 24" fill="none" xmlns="http://www.w3.org/2000/svg">
<path fill-rule="evenodd" clip-rule="evenodd" d="M17 7.5C17 7.36739 16.9473 7.24021 16.8536 7.14645C16.7598 7.05268 16.6326 7 16.5 7C16.3674 7 16.2402 7.05268 16.1464 7.14645C16.0527 7.24021 16 7.36739 16 7.5V16.5C16 16.6326 16.0527 16.7598 16.1464 16.8536C16.2402 16.9473 16.3674 17 16.5 17C16.6326 17 16.7598 16.9473 16.8536 16.8536C16.9473 16.7598 17 16.6326 17 16.5V7.5ZM13 11V13H11V11H13ZM13 10C13.2652 10 13.5196 10.1054 13.7071 10.2929C13.8946 10.4804 14 10.7348 14 11V13C14 13.2652 13.8946 13.5196 13.7071 13.7071C13.5196 13.8946 13.2652 14 13 14H11C10.7348 14 10.4804 13.8946 10.2929 13.7071C10.1054 13.5196 10 13.2652 10 13V11C10 10.7348 10.1054 10.4804 10.2929 10.2929C10.4804 10.1054 10.7348 10 11 10H13Z" fill="#1B1F24"/>
</svg>
