<svg width="24" height="24" viewBox="0 0 24 24" fill="none" xmlns="http://www.w3.org/2000/svg">
<path d="M15.1338 5.00879C15.4409 5.05021 15.7148 5.2328 15.8701 5.50684C16.0254 5.78114 16.0416 6.11063 15.9189 6.39551L15.8574 6.51465L13.7666 10H16C16.4044 10 16.769 10.2436 16.9238 10.6172C17.0786 10.9909 16.993 11.421 16.707 11.707L9.707 18.707C9.37128 19.0428 8.84556 19.0963 8.44919 18.835C8.05303 18.5736 7.89517 18.0696 8.07126 17.6289L9.52243 14H7.49997C7.1534 14 6.83159 13.8202 6.64939 13.5254C6.46731 13.2306 6.45049 12.8626 6.60544 12.5527L10.1054 5.55273L10.1767 5.43164C10.3617 5.16368 10.6685 5 11 5H15L15.1338 5.00879ZM7.49997 13H11L8.99997 18L16 11H12L15 6H11L7.49997 13Z" fill="#1B1F24" fill-opacity="0.9"/>
</svg>
